<svg width="53" height="52" viewBox="0 0 53 52" fill="none" xmlns="http://www.w3.org/2000/svg">
<g id="fi_9285392" clip-path="url(#clip0_124_1075)">
<g id="Group">
<path id="Vector" d="M4.51692 41.6958L25.845 51.8521C26.2594 52.0494 26.7406 52.0494 27.155 51.8521L48.4831 41.6958C49.641 41.1444 49.641 39.4963 48.4831 38.9449L43.3735 36.5118L27.155 44.2349C26.7406 44.4322 26.2594 44.4322 25.845 44.2349L9.62653 36.5118L4.51692 38.9449C3.35901 39.4963 3.35901 41.1444 4.51692 41.6958ZM4.51692 23.7105L13.8698 19.2567L15.6417 22.3255C15.9911 22.9308 16.7076 23.2208 17.38 23.0285L20.1191 22.245C20.7963 22.7533 21.5261 23.1756 22.3007 23.5077L22.9908 26.268C23.1603 26.9461 23.7697 27.4219 24.4688 27.4219H28.5313C29.2303 27.4219 29.8397 26.9461 30.0092 26.268L30.6993 23.5077C31.474 23.1756 32.2038 22.7533 32.881 22.245L35.62 23.0285C36.2925 23.2205 37.0089 22.931 37.3584 22.3255L39.1302 19.2567L48.4831 23.7105C49.641 24.2619 49.641 25.9101 48.4831 26.4615L27.155 36.6177C26.7406 36.815 26.2594 36.815 25.845 36.6177L4.51692 26.4615C3.35901 25.91 3.35901 24.2619 4.51692 23.7105Z" fill="#FAC653"/>
<path id="Vector_2" d="M4.51692 34.0785L25.845 44.2347C26.2594 44.4321 26.7406 44.4321 27.155 44.2347L48.4831 34.0785C49.641 33.5271 49.641 31.879 48.4831 31.3276L43.3735 28.8944L27.155 36.6175C26.7406 36.8149 26.2594 36.8149 25.845 36.6175L9.62653 28.8944L4.51692 31.3276C3.35901 31.879 3.35901 33.5271 4.51692 34.0785ZM13.8707 16.9504C13.3682 17.4362 13.2608 18.2018 13.6104 18.8072L15.6417 22.3255C15.9911 22.9308 16.7076 23.2207 17.38 23.0285L20.1191 22.2449C20.7963 22.7533 21.5261 23.1755 22.3007 23.5077L22.9908 26.2679C23.1603 26.9461 23.7697 27.4219 24.4688 27.4219H28.5313C29.2303 27.4219 29.8397 26.9461 30.0092 26.2679L30.6993 23.5077C31.474 23.1755 32.2038 22.7533 32.881 22.2449L35.62 23.0285C36.2925 23.2204 37.0089 22.931 37.3584 22.3255L39.3896 18.8072C39.7391 18.2018 39.6319 17.4362 39.1293 16.9504L37.0884 14.9769C37.1387 14.5557 37.1641 14.1323 37.1641 13.7109C37.1641 13.2896 37.1387 12.8661 37.0884 12.4449L39.1293 10.4714C39.6319 9.98552 39.7392 9.21994 39.3896 8.61453L37.3584 5.0963C37.009 4.49099 36.2925 4.20093 35.62 4.39329L32.881 5.17684C32.2038 4.66852 31.4739 4.24623 30.6993 3.91412L30.0092 1.15385C29.8397 0.47582 29.2303 0 28.5313 0H24.4688C23.7697 0 23.1603 0.47582 22.9908 1.15395L22.3007 3.91422C21.526 4.24633 20.7963 4.66862 20.1191 5.17695L17.38 4.39339C16.7076 4.20144 15.9911 4.49099 15.6417 5.09641L13.6104 8.61463C13.2609 9.22005 13.3682 9.98562 13.8707 10.4715L15.9116 12.445C15.8614 12.8661 15.836 13.2896 15.836 13.7109C15.836 14.1323 15.8614 14.5557 15.9116 14.977L13.8707 16.9504ZM23.4531 13.7109C23.4531 12.0281 24.8172 10.6641 26.5 10.6641C28.1828 10.6641 29.5469 12.0281 29.5469 13.7109C29.5469 15.3937 28.1828 16.7578 26.5 16.7578C24.8172 16.7578 23.4531 15.3937 23.4531 13.7109Z" fill="#254336"/>
</g>
</g>
<defs>
<clipPath id="clip0_124_1075">
<rect width="52" height="52" fill="white" transform="matrix(-1 0 0 1 52.5 0)"/>
</clipPath>
</defs>
</svg>
