<svg width="47" height="46" viewBox="0 0 47 46" fill="none" xmlns="http://www.w3.org/2000/svg">
<g id="fi_9524403" clip-path="url(#clip0_124_1069)">
<g id="Group">
<path id="Vector" d="M42.457 8.08594H22.4961L19.1591 2.07952C18.4466 0.796824 17.0924 0 15.625 0H4.54297C2.31368 0 0.5 1.81368 0.5 4.04297V30.9961C0.5 33.2254 2.31368 35.0391 4.54297 35.0391H42.457C44.6863 35.0391 46.5 33.2254 46.5 30.9961V12.1289C46.5 9.89961 44.6863 8.08594 42.457 8.08594Z" fill="#FAC653"/>
<path id="Vector_2" d="M46.5 6.73828V12.1289C46.5 9.89961 44.6863 8.08594 42.457 8.08594H22.4961L19.5012 2.69531H42.457C44.6863 2.69531 46.5 4.50899 46.5 6.73828ZM35.6289 32.0742V35.668C35.6289 36.248 35.2578 36.763 34.7075 36.9464L33.1879 37.453C33.0957 37.7044 32.9944 37.9506 32.8844 38.1911L33.5995 39.6214C33.8589 40.1401 33.7572 40.7668 33.347 41.1769L30.8058 43.7181C30.3959 44.1281 29.7692 44.2299 29.2503 43.9706L27.82 43.2555C27.5795 43.3655 27.3333 43.4668 27.0819 43.559L26.5754 45.0786C26.3919 45.6289 25.8769 46 25.2969 46H21.7031C21.1231 46 20.6081 45.6289 20.4246 45.0786L19.9181 43.559C19.6667 43.4668 19.4205 43.3655 19.18 43.2555L17.7497 43.9706C17.2307 44.2302 16.6042 44.1284 16.1942 43.7181L13.653 41.1769C13.2429 40.7668 13.1412 40.1401 13.4005 39.6214L14.1156 38.1911C14.0056 37.9506 13.9043 37.7044 13.8121 37.453L12.2925 36.9464C11.7422 36.763 11.3711 36.248 11.3711 35.668V32.0742C11.3711 31.4942 11.7422 30.9792 12.2925 30.7957L13.8121 30.2892C13.9043 30.0378 14.0056 29.7915 14.1156 29.551L13.4005 28.1208C13.1411 27.6021 13.2428 26.9754 13.653 26.5653L16.1942 24.0241C16.6043 23.614 17.231 23.5122 17.7497 23.7717L19.18 24.4867C19.4204 24.3767 19.6666 24.2753 19.9181 24.1832L20.4246 22.6636C20.6081 22.1133 21.1231 21.7422 21.7031 21.7422H25.2969C25.8769 21.7422 26.3919 22.1133 26.5754 22.6636L27.0819 24.1832C27.3334 24.2753 27.5796 24.3767 27.82 24.4867L29.2503 23.7717C29.7688 23.512 30.3957 23.6137 30.8058 24.0241L33.347 26.5653C33.7571 26.9754 33.8588 27.6021 33.5995 28.1208L32.8844 29.551C32.9944 29.7915 33.0957 30.0378 33.1879 30.2892L34.7075 30.7957C35.2578 30.9792 35.6289 31.4942 35.6289 32.0742ZM27.7676 33.8711C27.7676 31.5142 25.8569 29.6035 23.5 29.6035C21.1431 29.6035 19.2324 31.5142 19.2324 33.8711C19.2324 36.228 21.1431 38.1387 23.5 38.1387C25.8569 38.1387 27.7676 36.228 27.7676 33.8711Z" fill="#254336"/>
</g>
</g>
<defs>
<clipPath id="clip0_124_1069">
<rect width="46" height="46" fill="white" transform="translate(0.5)"/>
</clipPath>
</defs>
</svg>
